<svg width="156" height="117" viewBox="0 0 156 117" fill="none" xmlns="http://www.w3.org/2000/svg">
<path d="M6.5 0L12.1292 9.75H0.870835L6.5 0Z" fill="#9077DA" fill-opacity="0.6"/>
<path d="M6.5 36L12.1292 45.75H0.870835L6.5 36Z" fill="#9077DA" fill-opacity="0.6"/>
<path d="M6.5 71L12.1292 81.5H0.870835L6.5 71Z" fill="#9077DA" fill-opacity="0.6"/>
<path d="M6.5 107L12.1292 116.75H0.870835L6.5 107Z" fill="#9077DA" fill-opacity="0.6"/>
<path d="M42.5 0L48.1292 9.75H36.8708L42.5 0Z" fill="#9077DA" fill-opacity="0.6"/>
<path d="M42.5 36L48.1292 45.75H36.8708L42.5 36Z" fill="#9077DA" fill-opacity="0.6"/>
<path d="M42.5 71L48.1292 81.5H36.8708L42.5 71Z" fill="#9077DA" fill-opacity="0.6"/>
<path d="M42.5 107L48.1292 116.75H36.8708L42.5 107Z" fill="#9077DA" fill-opacity="0.6"/>
<path d="M78 0L84.0622 9.75H71.9378L78 0Z" fill="#9077DA" fill-opacity="0.6"/>
<path d="M78 36L84.0622 45.75H71.9378L78 36Z" fill="#9077DA" fill-opacity="0.6"/>
<path d="M78 71L84.0622 81.5H71.9378L78 71Z" fill="#9077DA" fill-opacity="0.6"/>
<path d="M78 107L84.0622 116.75H71.9378L78 107Z" fill="#9077DA" fill-opacity="0.6"/>
<path d="M113.5 0L119.129 9.75H107.871L113.5 0Z" fill="#9077DA" fill-opacity="0.6"/>
<path d="M113.5 36L119.129 45.75H107.871L113.5 36Z" fill="#9077DA" fill-opacity="0.6"/>
<path d="M113.5 71L119.129 81.5H107.871L113.5 71Z" fill="#9077DA" fill-opacity="0.6"/>
<path d="M113.5 107L119.129 116.75H107.871L113.5 107Z" fill="#9077DA" fill-opacity="0.6"/>
<path d="M149.5 0L155.129 9.75H143.871L149.5 0Z" fill="#9077DA" fill-opacity="0.6"/>
<path d="M149.5 36L155.129 45.75H143.871L149.5 36Z" fill="#9077DA" fill-opacity="0.6"/>
<path d="M149.5 71L155.129 81.5H143.871L149.5 71Z" fill="#9077DA" fill-opacity="0.6"/>
<path d="M149.5 107L155.129 116.75H143.871L149.5 107Z" fill="#9077DA" fill-opacity="0.6"/>
</svg>
