<svg width="120" height="120" viewBox="0 0 120 120" fill="none" xmlns="http://www.w3.org/2000/svg">
<circle cx="60" cy="60" r="60" fill="#A78BFA"/>
<ellipse cx="60.7422" cy="48.2842" rx="11.1853" ry="11.2842" stroke="white" stroke-width="3" stroke-linecap="round" stroke-linejoin="round"/>
<path fill-rule="evenodd" clip-rule="evenodd" d="M43 75.2626C42.997 74.4693 43.1729 73.6857 43.5143 72.9711C44.5857 70.8094 47.607 69.6636 50.114 69.1448C51.9221 68.7556 53.7552 68.4955 55.5995 68.3666C59.0143 68.064 62.4487 68.064 65.8634 68.3666C67.7076 68.497 69.5406 68.757 71.3489 69.1448C73.856 69.6636 76.8773 70.7013 77.9487 72.9711C78.6353 74.4278 78.6353 76.1189 77.9487 77.5756C76.8773 79.8454 73.856 80.8831 71.3489 81.3803C69.543 81.7857 67.7093 82.053 65.8634 82.1801C63.0841 82.4178 60.2919 82.4612 57.5066 82.3098C56.8638 82.3098 56.2424 82.3098 55.5995 82.1801C53.7606 82.0546 51.9339 81.7872 50.1355 81.3803C47.607 80.8831 44.6071 79.8454 43.5143 77.5756C43.1746 76.8527 42.999 76.0625 43 75.2626Z" stroke="white" stroke-width="3" stroke-linecap="round" stroke-linejoin="round"/>
</svg>